<svg xmlns="http://www.w3.org/2000/svg" viewBox="0 0 512 512" role="img" aria-labelledby="title desc">
  <title id="title">Ma'z Êst mountain book logo</title>
  <desc id="desc">A transparent emblem with Kurdish mountain peaks, an open book, a star and an ornamental golden arch.</desc>
  <defs>
    <clipPath id="archClip">
      <path d="M78 244a178 178 0 0 1 356 0v40h-30v-40a148 148 0 0 0-296 0v40H78Z"/>
    </clipPath>
    <filter id="softShadow" x="-20%" y="-20%" width="140%" height="140%">
      <feDropShadow dx="0" dy="5" stdDeviation="5" flood-color="#0b271f" flood-opacity=".13"/>
    </filter>
    <style>
      .gold { fill: #ad8544; }
      .goldStroke { fill: none; stroke: #ad8544; stroke-width: 12; stroke-linecap: round; stroke-linejoin: round; }
      .green { fill: #123b2f; }
      .greenStroke { fill: none; stroke: #123b2f; stroke-width: 14; stroke-linecap: round; stroke-linejoin: round; }
      .white { fill: #fffdf6; }
    </style>
  </defs>

  <g filter="url(#softShadow)">
    <path class="gold" d="M256 84 272 132 323 116 292 158 334 190 281 187 256 234 231 187 178 190 220 158 189 116 240 132Z"/>

    <path class="goldStroke" d="M86 257a170 170 0 0 1 340 0"/>
    <g clip-path="url(#archClip)" opacity=".95">
      <g class="gold" transform="translate(82 57)">
        <rect x="15" y="158" width="18" height="18" transform="rotate(45 24 167)"/>
        <rect x="45" y="111" width="18" height="18" transform="rotate(45 54 120)"/>
        <rect x="75" y="75" width="18" height="18" transform="rotate(45 84 84)"/>
        <rect x="113" y="49" width="18" height="18" transform="rotate(45 122 58)"/>
        <rect x="157" y="35" width="18" height="18" transform="rotate(45 166 44)"/>
        <rect x="203" y="35" width="18" height="18" transform="rotate(45 212 44)"/>
        <rect x="247" y="49" width="18" height="18" transform="rotate(45 256 58)"/>
        <rect x="285" y="75" width="18" height="18" transform="rotate(45 294 84)"/>
        <rect x="315" y="111" width="18" height="18" transform="rotate(45 324 120)"/>
        <rect x="345" y="158" width="18" height="18" transform="rotate(45 354 167)"/>
        <path d="M11 207h28v11H11zm37-50h28v11H48zm31-40h28v11H79zm40-30h28v11h-28zm46-16h28v11h-28zm49 0h28v11h-28zm46 16h28v11h-28zm40 30h28v11h-28zm31 40h28v11h-28z" transform="rotate(25 190 140)"/>
      </g>
    </g>

    <path class="white" d="M50 310c62-10 125-10 188 2 16 3 30 10 43 20 50-19 110-26 181-21l-5 26c-67-3-123 6-168 27-14-14-32-24-54-28-61-12-123-10-185 6Z"/>
    <path class="green" d="M56 296c64-14 126-15 187-3 18 4 34 11 47 22 49-22 105-31 168-25l-3 21c-69-5-126 4-171 28-14-14-31-23-52-27-56-11-115-10-178 4Z"/>
    <path class="white" d="M58 330c65-9 125-7 181 8 18 5 33 14 46 26 50-21 107-29 171-24l-8 24c-62-4-115 6-159 31-15-15-34-25-57-30-55-13-113-14-175-4Z"/>
    <path class="green" d="M62 352c64-11 123-10 178 4 20 5 36 14 48 27 43-26 97-37 162-33l-4 20c-61-2-112 9-154 35-15-16-34-26-59-32-53-13-110-13-172-1Z"/>

    <path class="green" d="M83 283 161 193 207 245 285 139 419 288c-48-2-91 5-129 22-18-15-38-24-61-29-49-10-98-9-146 2Z"/>
    <path class="white" d="M126 265 161 223 192 255 211 226 230 266 286 179 325 252 345 225 390 280c-36 2-69 9-100 23-18-14-38-22-61-26-34-7-68-11-103-12Z"/>
    <path class="green" d="M169 244 201 269 183 278 220 281 205 294 244 282 211 258 227 254 197 250 210 238Z"/>
    <path class="green" d="M303 230 329 256 316 263 352 262 340 275 380 277 345 249 359 244 328 242 340 231Z"/>

    <path class="goldStroke" d="M134 434h77"/>
    <path class="goldStroke" d="M301 434h77"/>
    <path class="gold" d="M256 419 273 436 256 453 239 436Zm0 17 16 16-16 16-16-16Zm-33 17 16 16-16 16-16-16Zm66 0 16 16-16 16-16-16Z"/>
  </g>
</svg>
